# xmcd CD Database Entry
#
# Track frame offsets:
# 150
# 19261
# 41444
# 66027
# 84325
# 102412
# 118604
# 142923
# 162289
# 181677
# 199633
# 221489
# 243586
#
# Disc length: 3519 seconds
#
# Revision: 1
# Processed by: cddbd v1.4b41PL1 Copyright (c) Steve Scherf et al.
# Submitted via: tcd 2.0b
#
DISCID=a80dbd0d
DTITLE=Johnny Hallyday - Sang pour sang
DYEAR=1900
DGENRE=
TTITLE0=Sang pour sang
TTITLE1=Le poids de mes maux
TTITLE2=Quelques cris
TTITLE3=Un jour viendra
TTITLE4=Notre histoire
TTITLE5=Les larmes de la gloire
TTITLE6=Si tu m'aimais
TTITLE7=Sang pour sang (live)
TTITLE8=Partie de cartes
TTITLE9=Pardon
TTITLE10=Ex
TTITLE11=Je t'aime comme je respire
TTITLE12=Vivre pour le meilleur
EXTD=
EXTT0=
EXTT1=
EXTT2=
EXTT3=
EXTT4=
EXTT5=
EXTT6=
EXTT7=
EXTT8=
EXTT9=
EXTT10=
EXTT11=
EXTT12=
PLAYORDER=
